<?xml version="1.0" encoding="UTF-8" standalone="no"?>
<svg width="14px" height="54px" viewBox="0 0 14 54" version="1.1" xmlns="http://www.w3.org/2000/svg" xmlns:xlink="http://www.w3.org/1999/xlink" xmlns:sketch="http://www.bohemiancoding.com/sketch/ns">
    <!-- Generator: Sketch 3.0.4 (8053) - http://www.bohemiancoding.com/sketch -->
    <title>checkbox</title>
    <desc>Created with Sketch.</desc>
    <defs></defs>
    <g id="UI" stroke="none" stroke-width="1" fill="none" fill-rule="evenodd" sketch:type="MSPage">
        <g id="checkbox" sketch:type="MSLayerGroup">
            <path d="M0,42.0058587 L0,51.9941413 C0,53.1019465 0.897060126,54 2.00585866,54 L11.9941413,54 C13.1019465,54 14,53.1029399 14,51.9941413 L14,42.0058587 C14,40.8980535 13.1029399,40 11.9941413,40 L2.00585866,40 C0.898053512,40 0,40.8970601 0,42.0058587 Z" id="Path" fill="#AAAAAA" sketch:type="MSShapeGroup"></path>
            <path d="M11.9941413,41 C12.5502354,41 13,41.4499185 13,42.0058587 L13,51.9941413 C13,52.5502354 12.5500815,53 11.9941413,53 L2.00585866,53 C1.44976457,53 1,52.5500815 1,51.9941413 L1,42.0058587 C1,41.4497646 1.44991848,41 2.00585866,41 L11.9941413,41 Z" id="Path" fill="#FFFFFF" sketch:type="MSShapeGroup"></path>
            <path d="M10.2928932,46.7071068 L10.2928932,48.7071068 L1.29289322,48.7071068 L1.29289322,42.7071068 L3.29289322,42.7071068 L3.29289322,46.7071068 L10.2928932,46.7071068 Z" id="Rectangle-189" fill="#777777" sketch:type="MSShapeGroup" transform="translate(6.292893, 44.707107) rotate(-45.000000) translate(-6.292893, -44.707107) "></path>
            <path d="M0,2.00585866 L0,11.9941413 C0,13.1019465 0.897060126,14 2.00585866,14 L11.9941413,14 C13.1019465,14 14,13.1029399 14,11.9941413 L14,2.00585866 C14,0.898053512 13.1029399,0 11.9941413,0 L2.00585866,0 C0.898053512,0 0,0.897060126 0,2.00585866 Z" id="Path" fill="#BBBBBB" sketch:type="MSShapeGroup"></path>
            <path d="M11.9941413,1 C12.5502354,1 13,1.44991848 13,2.00585866 L13,11.9941413 C13,12.5502354 12.5500815,13 11.9941413,13 L2.00585866,13 C1.44976457,13 1,12.5500815 1,11.9941413 L1,2.00585866 C1,1.44976457 1.44991848,1 2.00585866,1 L11.9941413,1 Z" id="Path" fill="#F8F8F8" sketch:type="MSShapeGroup"></path>
        </g>
    </g>
</svg>