<?xml version="1.0" encoding="UTF-8" standalone="no"?>
<svg width="88px" height="48px" viewBox="0 0 88 48" version="1.1" xmlns="http://www.w3.org/2000/svg" xmlns:xlink="http://www.w3.org/1999/xlink" xmlns:sketch="http://www.bohemiancoding.com/sketch/ns">
    <!-- Generator: Sketch 3.4.4 (17249) - http://www.bohemiancoding.com/sketch -->
    <title>icon_sprite_profile_hcd</title>
    <desc>Created with Sketch.</desc>
    <defs></defs>
    <g id="startHere" stroke="none" stroke-width="1" fill="none" fill-rule="evenodd" sketch:type="MSPage">
        <g id="tohcd" sketch:type="MSLayerGroup" transform="translate(0.000000, 30.000000)">
            <rect id="bg" fill="#D9D9D9" sketch:type="MSShapeGroup" x="0" y="0" width="88" height="18" rx="2"></rect>
            <path d="M13.3355402,3.98 L12.8237241,4.464 C13.3911724,4.893 13.8362299,5.3 14.170023,5.696 L12.0893793,5.696 C12.0671264,5.168 12.056,4.607 12.056,3.991 L11.2326437,3.991 C11.2326437,4.585 11.2437701,5.146 11.266023,5.696 L6.6708046,5.696 L6.6708046,9.359 C6.63742529,11.152 6.27025287,12.549 5.55816092,13.561 L6.17011494,14.1 C6.99347126,12.912 7.43852874,11.328 7.48303448,9.359 L7.48303448,9.029 L9.40790805,9.029 C9.38565517,10.239 9.35227586,11.031 9.28551724,11.405 C9.21875862,11.713 9.06298851,11.878 8.8182069,11.889 C8.5177931,11.889 8.15062069,11.878 7.71668966,11.856 L7.96147126,12.571 C8.31751724,12.593 8.64018391,12.615 8.90721839,12.615 C9.46354023,12.593 9.80845977,12.351 9.95310345,11.878 C10.0977471,11.339 10.1867586,10.14 10.2090115,8.281 L7.48303448,8.281 L7.48303448,6.455 L11.2994023,6.455 C11.3884138,7.83 11.5441839,8.985 11.7889655,9.909 C11.9113563,10.382 12.056,10.822 12.2117701,11.229 C11.444046,12.186 10.4982989,12.912 9.38565517,13.407 L9.83071264,14.067 C10.8765977,13.605 11.7889655,12.934 12.5678161,12.032 C12.7347126,12.373 12.9238621,12.681 13.1241379,12.945 C13.6582069,13.605 14.1588966,13.935 14.6262069,13.935 C15.1268966,13.935 15.5051954,13.198 15.7722299,11.735 L15.0490115,11.339 C14.8821149,12.472 14.6929655,13.044 14.4926897,13.055 C14.2701609,13.055 13.9697471,12.791 13.6025747,12.263 C13.4245517,12.01 13.2576552,11.702 13.1018851,11.35 C13.813977,10.36 14.3925517,9.128 14.8376092,7.676 L14.1143908,7.368 C13.7694713,8.545 13.3244138,9.579 12.768092,10.459 C12.6902069,10.217 12.6123218,9.964 12.5455632,9.689 C12.3452874,8.897 12.2006437,7.819 12.1227586,6.455 L15.5497011,6.455 L15.5497011,5.696 L14.1922759,5.696 L14.704092,5.19 C14.3257931,4.783 13.8696092,4.376 13.3355402,3.98 L13.3355402,3.98 Z M18.2311724,4.288 L17.6192184,4.717 C18.220046,5.333 18.7207356,5.916 19.1101609,6.466 L19.7332414,6.037 C19.3771954,5.531 18.8765057,4.948 18.2311724,4.288 L18.2311724,4.288 Z M22.1476782,8.93 L21.5023448,9.326 C22.2589425,10.184 22.8486437,10.976 23.2937011,11.68 L23.9946667,11.196 C23.5607356,10.558 22.9487816,9.799 22.1476782,8.93 L22.1476782,8.93 Z M20.7568736,4.013 L20.7568736,5.322 C20.7457471,5.806 20.7234943,6.268 20.6901149,6.73 L17.1407816,6.73 L17.1407816,7.5 L20.6011034,7.5 C20.4564598,8.6 20.2116782,9.557 19.8667586,10.371 C19.2881839,11.614 18.2422989,12.604 16.7513563,13.352 L17.2075402,14.056 C18.7207356,13.319 19.8,12.296 20.4564598,10.987 C20.9126437,10.041 21.2241839,8.886 21.4022069,7.5 L25.251954,7.5 C25.251954,8.908 25.2074483,10.217 25.1184368,11.416 C25.0294253,12.604 24.6622529,13.231 24.0391724,13.275 C23.5718621,13.275 23.060046,13.253 22.4925977,13.209 L22.704,13.979 C23.0822989,14.001 23.5384828,14.023 24.0836782,14.023 C24.8291494,14.023 25.352092,13.594 25.6413793,12.736 C25.9195402,11.878 26.0641839,9.876 26.0641839,6.73 L21.480092,6.73 C21.5134713,6.279 21.5357241,5.806 21.5468506,5.322 L21.5468506,4.013 L20.7568736,4.013 Z M34.2866207,4.068 C34.2866207,6.202 34.1197241,7.951 33.8081839,9.326 C33.3853793,10.965 32.5175172,12.318 31.2268506,13.396 L31.772046,14.045 C33.2518621,12.835 34.1976092,11.273 34.6204138,9.381 C34.676046,9.095 34.7316782,8.809 34.7873103,8.501 C35.4103908,10.679 36.3116322,12.527 37.5021609,14.023 L38.0807356,13.363 C36.6231724,11.713 35.5995402,9.469 35.0098391,6.653 C35.0765977,5.861 35.109977,4.992 35.109977,4.068 L34.2866207,4.068 Z M29.1128276,4.123 L28.5565057,4.662 C29.3576092,5.256 30.0029425,5.828 30.4702529,6.367 L31.0154483,5.817 C30.5036322,5.245 29.8694253,4.684 29.1128276,4.123 L29.1128276,4.123 Z M27.8110345,7.379 L27.8110345,8.138 L29.4466207,8.138 L29.4466207,12.428 C29.4466207,12.604 29.3576092,12.769 29.1907126,12.901 L29.5022529,13.605 C30.2811034,13.099 31.0154483,12.516 31.7052874,11.867 L31.5050115,11.053 C31.0488276,11.482 30.6148966,11.856 30.2143448,12.186 L30.2143448,7.379 L27.8110345,7.379 Z M45.8247356,5.311 L45.8247356,12.945 L44.2670345,12.945 L44.2670345,7.126 L43.4881839,7.126 L43.4881839,12.945 L42.3532874,12.945 L42.3532874,13.726 L49.1626667,13.726 L49.1626667,12.945 L46.6369655,12.945 L46.6369655,9.139 L48.7843678,9.139 L48.7843678,8.402 L46.6369655,8.402 L46.6369655,5.311 L48.9401379,5.311 L48.9401379,4.53 L42.6982069,4.53 L42.6982069,5.311 L45.8247356,5.311 Z M40.2837701,4.123 L39.7274483,4.64 C40.5062989,5.245 41.1182529,5.817 41.5744368,6.367 L42.1196322,5.817 C41.6189425,5.256 41.0069885,4.695 40.2837701,4.123 L40.2837701,4.123 Z M38.9263448,7.379 L38.9263448,8.138 L40.5396782,8.138 L40.5396782,12.417 C40.5396782,12.593 40.4617931,12.747 40.306023,12.879 L40.6175632,13.594 C41.3407816,13.099 42.0194943,12.538 42.6648276,11.922 L42.4534253,11.075 C42.0417471,11.471 41.6634483,11.823 41.3074023,12.131 L41.3074023,7.379 L38.9263448,7.379 Z M51.3545747,4.222 L50.7982529,4.739 C51.5548506,5.322 52.1445517,5.872 52.5784828,6.4 L53.1236782,5.85 C52.6452414,5.311 52.0555402,4.772 51.3545747,4.222 L51.3545747,4.222 Z M50.063908,7.401 L50.063908,8.16 L51.6104828,8.16 L51.6104828,12.516 C51.6104828,12.692 51.5214713,12.857 51.3657011,13.011 L51.6772414,13.715 C52.456092,13.209 53.2015632,12.637 53.9025287,11.988 L53.68,11.152 C53.2238161,11.581 52.7898851,11.955 52.3893333,12.285 L52.3893333,7.401 L50.063908,7.401 Z M54.0137931,8.688 L54.0137931,9.458 L54.6257471,9.458 C54.9372874,10.415 55.5047356,11.273 56.3503448,12.043 C55.5158621,12.626 54.4811034,13.099 53.246069,13.462 L53.6911264,14.133 C54.9929195,13.737 56.0944368,13.22 56.9845517,12.56 C57.7634023,13.154 58.7425287,13.671 59.8996782,14.133 L60.3336092,13.451 C59.2432184,13.055 58.3197241,12.604 57.5631264,12.087 C58.3753563,11.339 58.953931,10.448 59.309977,9.414 L59.309977,8.688 L54.0137931,8.688 Z M55.3823448,9.458 L58.52,9.458 C58.163954,10.272 57.6298851,10.976 56.9177931,11.592 C56.1834483,10.965 55.6716322,10.25 55.3823448,9.458 L55.3823448,9.458 Z M54.8705287,4.442 L54.8705287,5.663 C54.8705287,6.532 54.3809655,7.203 53.4129655,7.676 L53.9470345,8.281 C55.081931,7.643 55.6605057,6.741 55.6605057,5.575 L55.6605057,5.19 L57.8190345,5.19 L57.8190345,6.983 C57.8190345,7.632 58.1528276,7.962 58.8426667,7.962 L60.0665747,7.962 L60.0665747,7.236 L59.0429425,7.236 C58.7536552,7.236 58.6090115,7.093 58.6090115,6.818 L58.6090115,4.442 L54.8705287,4.442 Z M64.6729195,7.313 L64.6729195,8.105 L67.6881839,8.105 L67.6881839,14.122 L68.5115402,14.122 L68.5115402,8.105 L71.3710345,8.105 L71.3710345,7.313 L68.5115402,7.313 L68.5115402,4.002 L67.6881839,4.002 L67.6881839,7.313 L64.6729195,7.313 Z M62.4921379,4.123 L61.9358161,4.662 C62.7369195,5.256 63.3822529,5.828 63.8495632,6.367 L64.3947586,5.817 C63.8829425,5.245 63.2487356,4.684 62.4921379,4.123 L62.4921379,4.123 Z M61.1903448,7.379 L61.1903448,8.138 L62.825931,8.138 L62.825931,12.527 C62.825931,12.703 62.7369195,12.857 62.570023,12.989 L62.8815632,13.704 C63.6715402,13.187 64.4170115,12.604 65.1068506,11.944 L64.9065747,11.13 C64.4392644,11.57 63.9942069,11.944 63.5936552,12.274 L63.5936552,7.379 L61.1903448,7.379 Z M72.7062069,5.509 L72.7062069,11.295 L73.473931,11.295 L73.473931,5.509 L72.7062069,5.509 Z M74.6310805,4.024 L74.6310805,9.326 C74.6088276,11.284 73.9634943,12.703 72.6950805,13.583 L73.2847816,14.1 C74.6644598,13.099 75.3765517,11.504 75.409931,9.326 L75.409931,4.024 L74.6310805,4.024 Z M76.0886437,4.475 L76.0886437,5.223 L78.8368736,5.223 L78.8368736,6.675 L76.4335632,6.675 L76.4335632,12.978 L77.2012874,12.978 L77.2012874,7.423 L78.8368736,7.423 L78.8368736,14.1 L79.6157241,14.1 L79.6157241,7.423 L81.2513103,7.423 L81.2513103,11.845 C81.2513103,12.087 81.140046,12.219 80.9286437,12.219 L80.172046,12.175 L80.3834483,12.945 L81.1845517,12.945 C81.7408736,12.945 82.0190345,12.637 82.0190345,12.021 L82.0190345,6.675 L79.6157241,6.675 L79.6157241,5.223 L82.3417011,5.223 L82.3417011,4.475 L76.0886437,4.475 Z" id="txt" fill="#FFFFFF" sketch:type="MSShapeGroup"></path>
        </g>
        <g id="tohcd" sketch:type="MSLayerGroup">
            <rect id="bg" fill="#F67123" sketch:type="MSShapeGroup" x="0" y="0" width="88" height="18" rx="2"></rect>
            <path d="M13.184,3.98 L12.678,4.464 C13.239,4.893 13.679,5.3 14.009,5.696 L11.952,5.696 C11.93,5.168 11.919,4.607 11.919,3.991 L11.105,3.991 C11.105,4.585 11.116,5.146 11.138,5.696 L6.595,5.696 L6.595,9.359 C6.562,11.152 6.199,12.549 5.495,13.561 L6.1,14.1 C6.914,12.912 7.354,11.328 7.398,9.359 L7.398,9.029 L9.301,9.029 C9.279,10.239 9.246,11.031 9.18,11.405 C9.114,11.713 8.96,11.878 8.718,11.889 C8.421,11.889 8.058,11.878 7.629,11.856 L7.871,12.571 C8.223,12.593 8.542,12.615 8.806,12.615 C9.356,12.593 9.697,12.351 9.84,11.878 C9.983,11.339 10.071,10.14 10.093,8.281 L7.398,8.281 L7.398,6.455 L11.171,6.455 C11.259,7.83 11.413,8.985 11.655,9.909 C11.776,10.382 11.919,10.822 12.073,11.229 C11.314,12.186 10.379,12.912 9.279,13.407 L9.719,14.067 C10.753,13.605 11.655,12.934 12.425,12.032 C12.59,12.373 12.777,12.681 12.975,12.945 C13.503,13.605 13.998,13.935 14.46,13.935 C14.955,13.935 15.329,13.198 15.593,11.735 L14.878,11.339 C14.713,12.472 14.526,13.044 14.328,13.055 C14.108,13.055 13.811,12.791 13.448,12.263 C13.272,12.01 13.107,11.702 12.953,11.35 C13.657,10.36 14.229,9.128 14.669,7.676 L13.954,7.368 C13.613,8.545 13.173,9.579 12.623,10.459 C12.546,10.217 12.469,9.964 12.403,9.689 C12.205,8.897 12.062,7.819 11.985,6.455 L15.373,6.455 L15.373,5.696 L14.031,5.696 L14.537,5.19 C14.163,4.783 13.712,4.376 13.184,3.98 L13.184,3.98 Z M18.024,4.288 L17.419,4.717 C18.013,5.333 18.508,5.916 18.893,6.466 L19.509,6.037 C19.157,5.531 18.662,4.948 18.024,4.288 L18.024,4.288 Z M21.896,8.93 L21.258,9.326 C22.006,10.184 22.589,10.976 23.029,11.68 L23.722,11.196 C23.293,10.558 22.688,9.799 21.896,8.93 L21.896,8.93 Z M20.521,4.013 L20.521,5.322 C20.51,5.806 20.488,6.268 20.455,6.73 L16.946,6.73 L16.946,7.5 L20.367,7.5 C20.224,8.6 19.982,9.557 19.641,10.371 C19.069,11.614 18.035,12.604 16.561,13.352 L17.012,14.056 C18.508,13.319 19.575,12.296 20.224,10.987 C20.675,10.041 20.983,8.886 21.159,7.5 L24.965,7.5 C24.965,8.908 24.921,10.217 24.833,11.416 C24.745,12.604 24.382,13.231 23.766,13.275 C23.304,13.275 22.798,13.253 22.237,13.209 L22.446,13.979 C22.82,14.001 23.271,14.023 23.81,14.023 C24.547,14.023 25.064,13.594 25.35,12.736 C25.625,11.878 25.768,9.876 25.768,6.73 L21.236,6.73 C21.269,6.279 21.291,5.806 21.302,5.322 L21.302,4.013 L20.521,4.013 Z M33.897,4.068 C33.897,6.202 33.732,7.951 33.424,9.326 C33.006,10.965 32.148,12.318 30.872,13.396 L31.411,14.045 C32.874,12.835 33.809,11.273 34.227,9.381 C34.282,9.095 34.337,8.809 34.392,8.501 C35.008,10.679 35.899,12.527 37.076,14.023 L37.648,13.363 C36.207,11.713 35.195,9.469 34.612,6.653 C34.678,5.861 34.711,4.992 34.711,4.068 L33.897,4.068 Z M28.782,4.123 L28.232,4.662 C29.024,5.256 29.662,5.828 30.124,6.367 L30.663,5.817 C30.157,5.245 29.53,4.684 28.782,4.123 L28.782,4.123 Z M27.495,7.379 L27.495,8.138 L29.112,8.138 L29.112,12.428 C29.112,12.604 29.024,12.769 28.859,12.901 L29.167,13.605 C29.937,13.099 30.663,12.516 31.345,11.867 L31.147,11.053 C30.696,11.482 30.267,11.856 29.871,12.186 L29.871,7.379 L27.495,7.379 Z M45.304,5.311 L45.304,12.945 L43.764,12.945 L43.764,7.126 L42.994,7.126 L42.994,12.945 L41.872,12.945 L41.872,13.726 L48.604,13.726 L48.604,12.945 L46.107,12.945 L46.107,9.139 L48.23,9.139 L48.23,8.402 L46.107,8.402 L46.107,5.311 L48.384,5.311 L48.384,4.53 L42.213,4.53 L42.213,5.311 L45.304,5.311 Z M39.826,4.123 L39.276,4.64 C40.046,5.245 40.651,5.817 41.102,6.367 L41.641,5.817 C41.146,5.256 40.541,4.695 39.826,4.123 L39.826,4.123 Z M38.484,7.379 L38.484,8.138 L40.079,8.138 L40.079,12.417 C40.079,12.593 40.002,12.747 39.848,12.879 L40.156,13.594 C40.871,13.099 41.542,12.538 42.18,11.922 L41.971,11.075 C41.564,11.471 41.19,11.823 40.838,12.131 L40.838,7.379 L38.484,7.379 Z M50.771,4.222 L50.221,4.739 C50.969,5.322 51.552,5.872 51.981,6.4 L52.52,5.85 C52.047,5.311 51.464,4.772 50.771,4.222 L50.771,4.222 Z M49.495,7.401 L49.495,8.16 L51.024,8.16 L51.024,12.516 C51.024,12.692 50.936,12.857 50.782,13.011 L51.09,13.715 C51.86,13.209 52.597,12.637 53.29,11.988 L53.07,11.152 C52.619,11.581 52.19,11.955 51.794,12.285 L51.794,7.401 L49.495,7.401 Z M53.4,8.688 L53.4,9.458 L54.005,9.458 C54.313,10.415 54.874,11.273 55.71,12.043 C54.885,12.626 53.862,13.099 52.641,13.462 L53.081,14.133 C54.368,13.737 55.457,13.22 56.337,12.56 C57.107,13.154 58.075,13.671 59.219,14.133 L59.648,13.451 C58.57,13.055 57.657,12.604 56.909,12.087 C57.712,11.339 58.284,10.448 58.636,9.414 L58.636,8.688 L53.4,8.688 Z M54.753,9.458 L57.855,9.458 C57.503,10.272 56.975,10.976 56.271,11.592 C55.545,10.965 55.039,10.25 54.753,9.458 L54.753,9.458 Z M54.247,4.442 L54.247,5.663 C54.247,6.532 53.763,7.203 52.806,7.676 L53.334,8.281 C54.456,7.643 55.028,6.741 55.028,5.575 L55.028,5.19 L57.162,5.19 L57.162,6.983 C57.162,7.632 57.492,7.962 58.174,7.962 L59.384,7.962 L59.384,7.236 L58.372,7.236 C58.086,7.236 57.943,7.093 57.943,6.818 L57.943,4.442 L54.247,4.442 Z M63.938,7.313 L63.938,8.105 L66.919,8.105 L66.919,14.122 L67.733,14.122 L67.733,8.105 L70.56,8.105 L70.56,7.313 L67.733,7.313 L67.733,4.002 L66.919,4.002 L66.919,7.313 L63.938,7.313 Z M61.782,4.123 L61.232,4.662 C62.024,5.256 62.662,5.828 63.124,6.367 L63.663,5.817 C63.157,5.245 62.53,4.684 61.782,4.123 L61.782,4.123 Z M60.495,7.379 L60.495,8.138 L62.112,8.138 L62.112,12.527 C62.112,12.703 62.024,12.857 61.859,12.989 L62.167,13.704 C62.948,13.187 63.685,12.604 64.367,11.944 L64.169,11.13 C63.707,11.57 63.267,11.944 62.871,12.274 L62.871,7.379 L60.495,7.379 Z M71.88,5.509 L71.88,11.295 L72.639,11.295 L72.639,5.509 L71.88,5.509 Z M73.783,4.024 L73.783,9.326 C73.761,11.284 73.123,12.703 71.869,13.583 L72.452,14.1 C73.816,13.099 74.52,11.504 74.553,9.326 L74.553,4.024 L73.783,4.024 Z M75.224,4.475 L75.224,5.223 L77.941,5.223 L77.941,6.675 L75.565,6.675 L75.565,12.978 L76.324,12.978 L76.324,7.423 L77.941,7.423 L77.941,14.1 L78.711,14.1 L78.711,7.423 L80.328,7.423 L80.328,11.845 C80.328,12.087 80.218,12.219 80.009,12.219 L79.261,12.175 L79.47,12.945 L80.262,12.945 C80.812,12.945 81.087,12.637 81.087,12.021 L81.087,6.675 L78.711,6.675 L78.711,5.223 L81.406,5.223 L81.406,4.475 L75.224,4.475 Z" id="txt" fill="#FFFFFF" sketch:type="MSShapeGroup"></path>
        </g>
    </g>
</svg>